<svg width="123" height="41" fill="none" xmlns="http://www.w3.org/2000/svg">
  <path d="M19.58 3.79a17.2 17.2 0 0111.23 4.23 16.6 16.6 0 011.92 22.67 16.55 16.55 0 01-12.57 6.17c-2.5 0-6.1-.68-8.92-3.94l-.93-1.08C3.55 23.95-.19 19.61 8.4 8.92c2.64-3.3 6.62-5.13 11.19-5.13zm0-2.3c-4.87 0-9.61 1.94-12.87 6-10.2 12.73-4.36 18.43 2.92 26.97a13.52 13.52 0 0010.53 4.74c5.22 0 10.68-2.59 14.22-7.03a18.95 18.95 0 00-2.2-25.9 19.24 19.24 0 00-12.6-4.78z" fill="#0FF" />
  <path d="M21.1 40.52c-4.54 0-8.55-1.79-11.37-5.1l-.9-1.03C1.9 26.29-3.58 19.93 6.79 6.99c6.38-8 18.78-8.62 27.05-1.37 7.9 6.92 8.92 19.26 2.33 27.51a19.67 19.67 0 01-14.8 7.43c-.06-.04-.16-.04-.27-.04zm-.56-37.7c-4.63 0-9.13 1.9-12.08 5.6-9.17 11.44-4.98 16.32 2 24.43l.92 1.07c2.44 2.87 6 4.41 9.99 4.34 4.9-.07 9.95-2.62 13.15-6.6 5.8-7.32 4.87-18.19-2.1-24.28a18.01 18.01 0 00-11.88-4.56z" fill="#0D7FFF" />
  <path d="M20.16 39.91c-4.39 0-8.34-1.76-11.08-4.98l-.9-1.04C1.35 25.96-4.04 19.68 6.16 6.99c6.25-7.83 18.4-8.44 26.53-1.34 7.76 6.78 8.76 18.87 2.27 26.98-3.57 4.48-9 7.21-14.52 7.28h-.28zm-.51-37.7c-4.74 0-9.34 1.94-12.36 5.74-9.4 11.7-4.87 16.97 1.96 24.93l.9 1.08a13.12 13.12 0 0010.26 4.48 18 18 0 0013.42-6.74c5.97-7.46 5-18.58-2.1-24.83a18.35 18.35 0 00-12.08-4.66z" fill="#110223" />
  <path d="M14.2 20.33c0-3.3 2.63-5.96 5.83-6 1.4 0 2.67.47 3.67 1.3.38.32.45.9.17 1.32a.9.9 0 01-1.27.18 4.08 4.08 0 00-5.42.29 4.22 4.22 0 000 5.81 4.14 4.14 0 002.85 1.19c1 0 1.85-.33 2.57-.9a.93.93 0 011.27.18c.28.43.2 1-.17 1.33a5.7 5.7 0 01-3.67 1.29 5.99 5.99 0 01-5.84-6z" fill="#0FF" />
  <path d="M15.67 20.33c0-3.3 2.64-5.96 5.83-6 1.41 0 2.68.47 3.68 1.3.38.32.44.9.17 1.32a.9.9 0 01-1.27.18 4.08 4.08 0 00-5.42.29 4.22 4.22 0 000 5.81 4.14 4.14 0 002.84 1.19c1 0 1.86-.33 2.58-.9a.93.93 0 011.27.18c.27.43.2 1-.17 1.32a5.7 5.7 0 01-3.68 1.3 6 6 0 01-5.83-6z" fill="#0D7FFF" />
  <path d="M14.95 20.33c0-3.3 2.64-5.96 5.83-6 1.4 0 2.68.47 3.67 1.3.38.32.45.9.18 1.32a.9.9 0 01-1.27.18 4.08 4.08 0 00-5.42.29 4.22 4.22 0 000 5.81 4.14 4.14 0 002.84 1.19c1 0 1.86-.33 2.58-.9a.93.93 0 011.27.18c.27.43.2 1-.18 1.32a5.7 5.7 0 01-3.67 1.3 5.96 5.96 0 01-5.83-6zM53.07 20.06a5.87 5.87 0 019.5-4.53c.38.32.45.88.16 1.28a.93.93 0 01-1.28.18 3.93 3.93 0 00-2.55-.88 4.2 4.2 0 00-2.86 1.15 3.98 3.98 0 000 5.6A4.2 4.2 0 0058.9 24c.92.02 1.83-.3 2.55-.88.41-.28.96-.2 1.28.17.29.4.22.97-.16 1.29a5.84 5.84 0 01-9.5-4.53zM74.25 16a5.94 5.94 0 010 8.12 5.19 5.19 0 01-3.8 1.72 5.34 5.34 0 01-3.88-1.72 6.04 6.04 0 010-8.13 5.14 5.14 0 017.69 0zm-.2 4.05c0-1.04-.39-2.04-1.08-2.8a3.41 3.41 0 00-5.09 0 4.11 4.11 0 00-1.07 2.8 4.04 4.04 0 001.07 2.8 3.38 3.38 0 005.09 0 4.1 4.1 0 001.08-2.8zM87.6 16a5.94 5.94 0 010 8.12 5.17 5.17 0 01-3.8 1.72 5.33 5.33 0 01-3.9-1.72 6.04 6.04 0 010-8.13 5.14 5.14 0 017.68 0zm-.21 4.05c0-1.04-.39-2.04-1.09-2.8a3.4 3.4 0 00-5.07 0 4.11 4.11 0 00-1.08 2.8 4.04 4.04 0 001.08 2.8 3.37 3.37 0 005.07 0 4.1 4.1 0 001.09-2.8zM92.24 24.95v-9.5c0-.48.4-.87.88-.87s.88.39.89.88v8.58h4.3c.49 0 .89.4.89.89 0 .5-.4.9-.89.9h-5.2a.88.88 0 01-.87-.88zM106.4 16.38h-2.52v8.57a.86.86 0 01-.87.89.88.88 0 01-.87-.89v-8.57h-2.52a.88.88 0 01-.62-.27.9.9 0 01-.25-.63c0-.24.09-.47.25-.63a.85.85 0 01.62-.26h6.79c.48 0 .87.4.87.89s-.4.9-.88.9zM109.98 15.48a.86.86 0 01.87-.88c.5 0 .89.39.9.88v9.5c-.01.48-.4.88-.9.88a.88.88 0 01-.87-.89v-9.5zM122.69 16.14l-3.02 4.14 3.02 4.18a.88.88 0 01-.2 1.22.88.88 0 01-.5.18.9.9 0 01-.71-.37l-2.68-3.71-2.68 3.71a.9.9 0 01-.7.37.82.82 0 01-.5-.18.89.89 0 01-.21-1.22l3.01-4.18-3.01-4.14a.89.89 0 01.2-1.22.82.82 0 011.2.2l2.7 3.69 2.67-3.7a.84.84 0 011.22-.19c.38.28.47.83.19 1.22z" fill="#000" />
</svg>
